<mxfile host="app.diagrams.net" agent="Mozilla/5.0 (Windows NT 10.0; Win64; x64) AppleWebKit/537.36 (KHTML, like Gecko) Chrome/130.0.0.0 Safari/537.36" version="24.8.3">
  <diagram name="Page-1" id="YhSlEc9bD7fD2kwrkRbG">
    <mxGraphModel dx="1588" dy="892" grid="1" gridSize="10" guides="1" tooltips="1" connect="1" arrows="1" fold="1" page="1" pageScale="1" pageWidth="827" pageHeight="1169" math="0" shadow="0">
      <root>
        <mxCell id="0" />
        <mxCell id="1" parent="0" />
        <mxCell id="3vg_fKFmb8jQz_aYUg4--1" value="Mulai" style="rounded=1;whiteSpace=wrap;arcSize=50;strokeWidth=2;" vertex="1" parent="1">
          <mxGeometry x="295" y="20" width="62" height="34" as="geometry" />
        </mxCell>
        <mxCell id="3vg_fKFmb8jQz_aYUg4--2" value="Inisialisasi SPI dan MFRC522" style="whiteSpace=wrap;strokeWidth=2;" vertex="1" parent="1">
          <mxGeometry x="197" y="104" width="258" height="49" as="geometry" />
        </mxCell>
        <mxCell id="3vg_fKFmb8jQz_aYUg4--3" value="Pesan: Tempatkan kartu di RFID" style="whiteSpace=wrap;strokeWidth=2;" vertex="1" parent="1">
          <mxGeometry x="201" y="202" width="250" height="66" as="geometry" />
        </mxCell>
        <mxCell id="3vg_fKFmb8jQz_aYUg4--4" value="Ada kartu baru?" style="rhombus;strokeWidth=2;whiteSpace=wrap;" vertex="1" parent="1">
          <mxGeometry x="245" y="319" width="162" height="162" as="geometry" />
        </mxCell>
        <mxCell id="3vg_fKFmb8jQz_aYUg4--5" value="Dapat membaca kartu?" style="rhombus;strokeWidth=2;whiteSpace=wrap;" vertex="1" parent="1">
          <mxGeometry x="37" y="553" width="213" height="213" as="geometry" />
        </mxCell>
        <mxCell id="3vg_fKFmb8jQz_aYUg4--6" value="Membaca UID dari kartu" style="whiteSpace=wrap;strokeWidth=2;" vertex="1" parent="1">
          <mxGeometry x="27" y="839" width="233" height="49" as="geometry" />
        </mxCell>
        <mxCell id="3vg_fKFmb8jQz_aYUg4--7" value="Menampilkan UID di Serial Monitor" style="whiteSpace=wrap;strokeWidth=2;" vertex="1" parent="1">
          <mxGeometry x="20" y="937" width="248" height="66" as="geometry" />
        </mxCell>
        <mxCell id="3vg_fKFmb8jQz_aYUg4--8" value="UID diizinkan?" style="rhombus;strokeWidth=2;whiteSpace=wrap;" vertex="1" parent="1">
          <mxGeometry x="70" y="1054" width="148" height="148" as="geometry" />
        </mxCell>
        <mxCell id="3vg_fKFmb8jQz_aYUg4--9" value="Menampilkan Allow di Serial Monitor" style="whiteSpace=wrap;strokeWidth=2;" vertex="1" parent="1">
          <mxGeometry x="36" y="1275" width="216" height="66" as="geometry" />
        </mxCell>
        <mxCell id="3vg_fKFmb8jQz_aYUg4--10" value="Menyalakan LED selama 3 detik" style="whiteSpace=wrap;strokeWidth=2;" vertex="1" parent="1">
          <mxGeometry x="139" y="1391" width="244" height="66" as="geometry" />
        </mxCell>
        <mxCell id="3vg_fKFmb8jQz_aYUg4--11" value="Menampilkan Deny di Serial Monitor" style="whiteSpace=wrap;strokeWidth=2;" vertex="1" parent="1">
          <mxGeometry x="410" y="1275" width="258" height="66" as="geometry" />
        </mxCell>
        <mxCell id="3vg_fKFmb8jQz_aYUg4--12" value="Membuat LED berkedip" style="whiteSpace=wrap;strokeWidth=2;" vertex="1" parent="1">
          <mxGeometry x="508" y="1400" width="226" height="49" as="geometry" />
        </mxCell>
        <mxCell id="3vg_fKFmb8jQz_aYUg4--13" value="" style="whiteSpace=wrap;strokeWidth=2;" vertex="1" parent="1">
          <mxGeometry x="305" y="659" as="geometry" />
        </mxCell>
        <mxCell id="3vg_fKFmb8jQz_aYUg4--14" value="" style="whiteSpace=wrap;strokeWidth=2;" vertex="1" parent="1">
          <mxGeometry x="326" y="863" as="geometry" />
        </mxCell>
        <mxCell id="3vg_fKFmb8jQz_aYUg4--15" value="" style="curved=1;startArrow=none;endArrow=block;exitX=0.5;exitY=0.99;entryX=0.5;entryY=-0.01;rounded=0;" edge="1" parent="1" source="3vg_fKFmb8jQz_aYUg4--1" target="3vg_fKFmb8jQz_aYUg4--2">
          <mxGeometry relative="1" as="geometry">
            <Array as="points" />
          </mxGeometry>
        </mxCell>
        <mxCell id="3vg_fKFmb8jQz_aYUg4--16" value="" style="curved=1;startArrow=none;endArrow=block;exitX=0.5;exitY=0.99;entryX=0.5;entryY=0.01;rounded=0;" edge="1" parent="1" source="3vg_fKFmb8jQz_aYUg4--2" target="3vg_fKFmb8jQz_aYUg4--3">
          <mxGeometry relative="1" as="geometry">
            <Array as="points" />
          </mxGeometry>
        </mxCell>
        <mxCell id="3vg_fKFmb8jQz_aYUg4--17" value="" style="curved=1;startArrow=none;endArrow=block;exitX=0.5;exitY=1.01;entryX=0.5;entryY=0;rounded=0;" edge="1" parent="1" source="3vg_fKFmb8jQz_aYUg4--3" target="3vg_fKFmb8jQz_aYUg4--4">
          <mxGeometry relative="1" as="geometry">
            <Array as="points" />
          </mxGeometry>
        </mxCell>
        <mxCell id="3vg_fKFmb8jQz_aYUg4--18" value="" style="curved=1;startArrow=none;endArrow=none;exitX=0.41;exitY=1;entryX=Infinity;entryY=Infinity;rounded=0;" edge="1" parent="1" source="3vg_fKFmb8jQz_aYUg4--4" target="3vg_fKFmb8jQz_aYUg4--13">
          <mxGeometry relative="1" as="geometry">
            <Array as="points">
              <mxPoint x="305" y="517" />
            </Array>
          </mxGeometry>
        </mxCell>
        <mxCell id="3vg_fKFmb8jQz_aYUg4--19" value="Tidak" style="curved=1;startArrow=none;endArrow=none;exitX=Infinity;exitY=Infinity;entryX=Infinity;entryY=-Infinity;rounded=0;" edge="1" parent="1" source="3vg_fKFmb8jQz_aYUg4--13" target="3vg_fKFmb8jQz_aYUg4--14">
          <mxGeometry relative="1" as="geometry">
            <Array as="points">
              <mxPoint x="305" y="802" />
            </Array>
          </mxGeometry>
        </mxCell>
        <mxCell id="3vg_fKFmb8jQz_aYUg4--20" value="" style="curved=1;startArrow=none;endArrow=block;exitX=Infinity;exitY=-Infinity;entryX=0.59;entryY=1;rounded=0;" edge="1" parent="1" source="3vg_fKFmb8jQz_aYUg4--14" target="3vg_fKFmb8jQz_aYUg4--4">
          <mxGeometry relative="1" as="geometry">
            <Array as="points">
              <mxPoint x="347" y="802" />
              <mxPoint x="347" y="517" />
            </Array>
          </mxGeometry>
        </mxCell>
        <mxCell id="3vg_fKFmb8jQz_aYUg4--21" value="Ya" style="curved=1;startArrow=none;endArrow=block;exitX=0;exitY=0.78;entryX=0.41;entryY=0;rounded=0;" edge="1" parent="1" source="3vg_fKFmb8jQz_aYUg4--4" target="3vg_fKFmb8jQz_aYUg4--5">
          <mxGeometry relative="1" as="geometry">
            <Array as="points">
              <mxPoint x="118" y="517" />
            </Array>
          </mxGeometry>
        </mxCell>
        <mxCell id="3vg_fKFmb8jQz_aYUg4--22" value="Tidak" style="curved=1;startArrow=none;endArrow=block;exitX=0.72;exitY=0;entryX=0;entryY=0.98;rounded=0;" edge="1" parent="1" source="3vg_fKFmb8jQz_aYUg4--5" target="3vg_fKFmb8jQz_aYUg4--4">
          <mxGeometry relative="1" as="geometry">
            <Array as="points">
              <mxPoint x="206" y="517" />
            </Array>
          </mxGeometry>
        </mxCell>
        <mxCell id="3vg_fKFmb8jQz_aYUg4--23" value="Ya" style="curved=1;startArrow=none;endArrow=block;exitX=0.5;exitY=1;entryX=0.5;entryY=-0.01;rounded=0;" edge="1" parent="1" source="3vg_fKFmb8jQz_aYUg4--5" target="3vg_fKFmb8jQz_aYUg4--6">
          <mxGeometry relative="1" as="geometry">
            <Array as="points" />
          </mxGeometry>
        </mxCell>
        <mxCell id="3vg_fKFmb8jQz_aYUg4--24" value="" style="curved=1;startArrow=none;endArrow=block;exitX=0.5;exitY=0.99;entryX=0.5;entryY=0;rounded=0;" edge="1" parent="1" source="3vg_fKFmb8jQz_aYUg4--6" target="3vg_fKFmb8jQz_aYUg4--7">
          <mxGeometry relative="1" as="geometry">
            <Array as="points" />
          </mxGeometry>
        </mxCell>
        <mxCell id="3vg_fKFmb8jQz_aYUg4--25" value="" style="curved=1;startArrow=none;endArrow=block;exitX=0.5;exitY=1.01;entryX=0.5;entryY=0;rounded=0;" edge="1" parent="1" source="3vg_fKFmb8jQz_aYUg4--7" target="3vg_fKFmb8jQz_aYUg4--8">
          <mxGeometry relative="1" as="geometry">
            <Array as="points" />
          </mxGeometry>
        </mxCell>
        <mxCell id="3vg_fKFmb8jQz_aYUg4--26" value="Ya" style="curved=1;startArrow=none;endArrow=block;exitX=0.5;exitY=1;entryX=0.5;entryY=-0.01;rounded=0;" edge="1" parent="1" source="3vg_fKFmb8jQz_aYUg4--8" target="3vg_fKFmb8jQz_aYUg4--9">
          <mxGeometry relative="1" as="geometry">
            <Array as="points" />
          </mxGeometry>
        </mxCell>
        <mxCell id="3vg_fKFmb8jQz_aYUg4--27" value="" style="curved=1;startArrow=none;endArrow=block;exitX=0.5;exitY=1;entryX=0.23;entryY=0;rounded=0;" edge="1" parent="1" source="3vg_fKFmb8jQz_aYUg4--9" target="3vg_fKFmb8jQz_aYUg4--10">
          <mxGeometry relative="1" as="geometry">
            <Array as="points">
              <mxPoint x="144" y="1366" />
            </Array>
          </mxGeometry>
        </mxCell>
        <mxCell id="3vg_fKFmb8jQz_aYUg4--28" value="" style="curved=1;startArrow=none;endArrow=block;exitX=0.76;exitY=0;entryX=0.71;entryY=1;rounded=0;" edge="1" parent="1" source="3vg_fKFmb8jQz_aYUg4--10" target="3vg_fKFmb8jQz_aYUg4--4">
          <mxGeometry relative="1" as="geometry">
            <Array as="points">
              <mxPoint x="375" y="1366" />
              <mxPoint x="375" y="517" />
            </Array>
          </mxGeometry>
        </mxCell>
        <mxCell id="3vg_fKFmb8jQz_aYUg4--29" value="Tidak" style="curved=1;startArrow=none;endArrow=block;exitX=1;exitY=0.64;entryX=0.5;entryY=-0.01;rounded=0;" edge="1" parent="1" source="3vg_fKFmb8jQz_aYUg4--8" target="3vg_fKFmb8jQz_aYUg4--11">
          <mxGeometry relative="1" as="geometry">
            <Array as="points">
              <mxPoint x="539" y="1238" />
            </Array>
          </mxGeometry>
        </mxCell>
        <mxCell id="3vg_fKFmb8jQz_aYUg4--30" value="" style="curved=1;startArrow=none;endArrow=block;exitX=0.5;exitY=1;entryX=0.35;entryY=-0.01;rounded=0;" edge="1" parent="1" source="3vg_fKFmb8jQz_aYUg4--11" target="3vg_fKFmb8jQz_aYUg4--12">
          <mxGeometry relative="1" as="geometry">
            <Array as="points">
              <mxPoint x="539" y="1366" />
            </Array>
          </mxGeometry>
        </mxCell>
        <mxCell id="3vg_fKFmb8jQz_aYUg4--31" value="" style="curved=1;startArrow=none;endArrow=block;exitX=0.65;exitY=-0.01;entryX=1;entryY=0.65;rounded=0;" edge="1" parent="1" source="3vg_fKFmb8jQz_aYUg4--12" target="3vg_fKFmb8jQz_aYUg4--4">
          <mxGeometry relative="1" as="geometry">
            <Array as="points">
              <mxPoint x="703" y="1366" />
              <mxPoint x="703" y="517" />
            </Array>
          </mxGeometry>
        </mxCell>
      </root>
    </mxGraphModel>
  </diagram>
</mxfile>
